<svg width="50" height="50" viewBox="0 0 50 50" xmlns="http://www.w3.org/2000/svg"><path fill="#1b766e" d="M50 25a25 25 0 0 1-25 25A25 25 0 0 1 0 25a25 25 0 0 1 50 0"/><path fill="#f5f5f5" d="M25.389 45.791q-4.571 0-8.413-1.508t-6.711-4.28-4.426-6.565q-1.556-3.842-1.556-8.462 0-4.571 1.556-8.365 1.556-3.842 4.426-6.565 2.869-2.772 6.711-4.28 3.842-1.556 8.365-1.556 4.571 0 8.316 1.556t6.42 4.328q2.723 2.772 4.182 6.565t1.459 8.268q0 3.161-1.119 5.496-1.07 2.286-3.015 3.55-1.897 1.216-4.474 1.216-1.654 0-3.307-.632-1.605-.681-2.723-2.043-1.07-1.362-1.167-3.599l1.167 2.432q-.486 1.216-1.605 2.091-1.119.827-2.626 1.313-1.459.438-3.064.438-2.821 0-5.155-1.313-2.286-1.362-3.696-3.696-1.362-2.383-1.362-5.35 0-2.918 1.362-5.35t3.696-3.891q2.383-1.459 5.35-1.459 2.383 0 4.28.924 1.897.875 2.529 2.383l-.486 1.654v-4.474h4.424v12.304q0 1.751.681 2.675t1.848.924q1.605 0 2.383-1.313.778-1.362.778-4.474 0-3.356-1.021-6.176-.973-2.869-2.869-4.961-1.897-2.14-4.717-3.307-2.772-1.216-6.42-1.216-3.55 0-6.468 1.216-2.869 1.167-5.009 3.307-2.091 2.14-3.258 5.009-1.119 2.869-1.119 6.322 0 3.502 1.167 6.468 1.216 2.918 3.356 5.058t5.009 3.307q2.918 1.167 6.322 1.167 2.286 0 4.377-.584 2.14-.535 3.891-1.654l2.237 4.28Q31.324 45.79 25.39 45.79m-1.07-15.271q1.654 0 2.918-.778t1.945-2.091q.729-1.362.729-2.967 0-2.48-1.556-4.134t-3.988-1.702q-1.605 0-2.918.729t-2.091 2.043q-.729 1.313-.729 3.015 0 1.654.729 3.015.778 1.313 2.043 2.091 1.313.778 2.918.778"/></svg>